<svg width="64" height="65" viewBox="0 0 64 65" fill="none" xmlns="http://www.w3.org/2000/svg">
<rect y="0.0495605" width="64" height="64" rx="32" fill="#000066"/>
<path d="M20.1842 25.9889L27.344 30.7105C29.9014 32.2449 31.18 33.0121 32.5849 32.9786C33.9898 32.9452 35.2305 32.1181 37.712 30.4637L43.8157 25.9889M29.5758 41.7465H34.4242C38.9954 41.7465 41.281 41.7465 42.7011 40.3264C44.1212 38.9063 44.1212 36.6207 44.1212 32.0495C44.1212 27.4783 44.1212 25.1927 42.7011 23.7726C41.281 22.3525 38.9954 22.3525 34.4242 22.3525H29.5758C25.0046 22.3525 22.719 22.3525 21.2989 23.7726C19.8788 25.1927 19.8788 27.4783 19.8788 32.0495C19.8788 36.6207 19.8788 38.9063 21.2989 40.3264C22.719 41.7465 25.0046 41.7465 29.5758 41.7465Z" stroke="white" stroke-width="1.51273" stroke-linecap="round"/>
</svg>
