<svg width="64" height="65" viewBox="0 0 64 65" fill="none" xmlns="http://www.w3.org/2000/svg">
<g clip-path="url(#clip0_107_22)">
<rect x="0.145386" y="0.0495605" width="64" height="64" rx="26.6667" fill="url(#paint0_linear_107_22)"/>
<path d="M26.1737 32.0495C26.1737 28.8326 28.7823 26.2242 32.0011 26.2242C35.2199 26.2242 37.8299 28.8326 37.8299 32.0495C37.8299 35.2663 35.2199 37.8748 32.0011 37.8748C28.7823 37.8748 26.1737 35.2663 26.1737 32.0495ZM23.0228 32.0495C23.0228 37.0053 27.0424 41.0224 32.0011 41.0224C36.9599 41.0224 40.9795 37.0053 40.9795 32.0495C40.9795 27.0937 36.9599 23.0765 32.0011 23.0765C27.0424 23.0765 23.0228 27.0937 23.0228 32.0495ZM39.2367 22.7207C39.2365 23.1355 39.3594 23.5409 39.5899 23.8859C39.8203 24.2308 40.1479 24.4997 40.5312 24.6586C40.9145 24.8174 41.3364 24.8591 41.7434 24.7784C42.1505 24.6976 42.5244 24.4981 42.818 24.2049C43.1115 23.9118 43.3115 23.5382 43.3926 23.1315C43.4738 22.7248 43.4324 22.3031 43.2737 21.9199C43.1151 21.5367 42.8463 21.2091 42.5013 20.9785C42.1564 20.7479 41.7507 20.6248 41.3358 20.6246H41.3349C40.7787 20.6249 40.2453 20.8458 39.8518 21.2388C39.4584 21.6318 39.2372 22.1648 39.2367 22.7207ZM24.9372 46.2733C23.2325 46.1957 22.3059 45.912 21.6901 45.6722C20.8738 45.3546 20.2913 44.9763 19.6789 44.3651C19.0666 43.7539 18.6875 43.1724 18.3711 42.3565C18.131 41.7414 17.8471 40.8151 17.7696 39.1114C17.6848 37.2695 17.6679 36.7162 17.6679 32.0496C17.6679 27.3831 17.6862 26.8313 17.7696 24.9878C17.8472 23.2841 18.1333 22.3596 18.3711 21.7427C18.6889 20.9269 19.0674 20.3448 19.6789 19.7327C20.2905 19.1207 20.8724 18.7419 21.6901 18.4256C22.3056 18.1857 23.2325 17.902 24.9372 17.8245C26.7802 17.7398 27.3339 17.7229 32.0011 17.7229C36.6684 17.7229 37.2226 17.7412 39.0672 17.8245C40.7719 17.9021 41.6969 18.188 42.3142 18.4256C43.1306 18.7419 43.713 19.1215 44.3254 19.7327C44.9378 20.3439 45.3155 20.9269 45.6333 21.7427C45.8733 22.3578 46.1573 23.2841 46.2348 24.9878C46.3195 26.8313 46.3365 27.3831 46.3365 32.0496C46.3365 36.7162 46.3195 37.2679 46.2348 39.1114C46.1571 40.8151 45.8718 41.7411 45.6333 42.3565C45.3155 43.1724 44.937 43.7545 44.3254 44.3651C43.7139 44.9757 43.1306 45.3546 42.3142 45.6722C41.6987 45.9121 40.7719 46.1959 39.0672 46.2733C37.2241 46.3581 36.6705 46.375 32.0011 46.375C27.3318 46.375 26.7797 46.3581 24.9372 46.2733ZM24.7924 14.6808C22.931 14.7655 21.6591 15.0605 20.5483 15.4924C19.3979 15.9385 18.4241 16.537 17.4509 17.508C16.4778 18.479 15.8805 19.4538 15.4341 20.6035C15.0019 21.7143 14.7068 22.9848 14.622 24.8451C14.5358 26.7083 14.5161 27.304 14.5161 32.0495C14.5161 36.795 14.5358 37.3907 14.622 39.2539C14.7068 41.1143 15.0019 42.3846 15.4341 43.4954C15.8805 44.6444 16.4779 45.6203 17.4509 46.591C18.4239 47.5616 19.3979 48.1592 20.5483 48.6065C21.6612 49.0385 22.931 49.3335 24.7924 49.4182C26.6577 49.5029 27.2528 49.524 32.0011 49.524C36.7495 49.524 37.3455 49.5043 39.2099 49.4182C41.0714 49.3335 42.3425 49.0385 43.454 48.6065C44.6036 48.1592 45.5782 47.562 46.5513 46.591C47.5245 45.6199 48.1205 44.6444 48.5681 43.4954C49.0003 42.3846 49.2969 41.1142 49.3803 39.2539C49.465 37.3893 49.4847 36.795 49.4847 32.0495C49.4847 27.304 49.465 26.7083 49.3803 24.8451C49.2955 22.9847 49.0003 21.7136 48.5681 20.6035C48.1205 19.4545 47.5229 18.4806 46.5513 17.508C45.5797 16.5355 44.6036 15.9385 43.4554 15.4924C42.3425 15.0605 41.0712 14.7641 39.2113 14.6808C37.3469 14.5961 36.7509 14.575 32.0025 14.575C27.2542 14.575 26.6577 14.5947 24.7924 14.6808Z" fill="white"/>
</g>
<defs>
<linearGradient id="paint0_linear_107_22" x1="62.9153" y1="64.0496" x2="-1.08469" y2="0.0495588" gradientUnits="userSpaceOnUse">
<stop stop-color="#FBE18A"/>
<stop offset="0.21" stop-color="#FCBB45"/>
<stop offset="0.38" stop-color="#F75274"/>
<stop offset="0.52" stop-color="#D53692"/>
<stop offset="0.74" stop-color="#8F39CE"/>
<stop offset="1" stop-color="#5B4FE9"/>
</linearGradient>
<clipPath id="clip0_107_22">
<rect y="0.0495605" width="64" height="64" rx="32" fill="white"/>
</clipPath>
</defs>
</svg>
