<svg width="37" height="37" viewBox="0 0 37 37" fill="none" xmlns="http://www.w3.org/2000/svg">
<g clip-path="url(#clip0_207_1239)">
<rect x="1.02441" y="0.308105" width="36" height="36" rx="15" fill="#006699"/>
<path d="M15.1771 24.8543V15.9985H12.2336V24.8543H15.1774H15.1771ZM13.7059 14.7896C14.7322 14.7896 15.3711 14.1096 15.3711 13.2597C15.3519 12.3905 14.7322 11.7295 13.7255 11.7295C12.718 11.7295 12.0601 12.3905 12.0601 13.2597C12.0601 14.1095 12.6987 14.7895 13.6867 14.7895H13.7057L13.7059 14.7896ZM16.8064 24.8543H19.7497V19.9093C19.7497 19.645 19.7689 19.38 19.8466 19.1912C20.0593 18.6622 20.5436 18.1145 21.357 18.1145C22.4218 18.1145 22.848 18.9266 22.848 20.1172V24.8543H25.7912V19.7766C25.7912 17.0566 24.3393 15.7909 22.4027 15.7909C20.815 15.7909 20.1177 16.6783 19.7303 17.2827H19.7499V15.9988H16.8065C16.8449 16.8296 16.8063 24.8546 16.8063 24.8546L16.8064 24.8543Z" fill="white"/>
</g>
<defs>
<clipPath id="clip0_207_1239">
<rect x="0.942871" y="0.135742" width="36" height="36" rx="18" fill="white"/>
</clipPath>
</defs>
</svg>
