<svg width="64" height="65" viewBox="0 0 64 65" fill="none" xmlns="http://www.w3.org/2000/svg">
<g clip-path="url(#clip0_107_20)">
<rect x="0.0969238" y="0.355835" width="64" height="64" rx="10.4847" fill="#006699"/>
<path d="M47.0643 14.7281C48.4917 14.7283 49.6483 15.8505 49.6483 17.233V47.194C49.6481 48.5768 48.4916 49.6978 47.0643 49.6979H17.2635C15.8367 49.6979 14.6786 48.5768 14.6786 47.194V17.233L14.6923 16.9772C14.8247 15.7146 15.9258 14.7281 17.2635 14.7281H47.0643ZM20.0721 43.9938H25.3055V28.2496H20.0721V43.9938ZM38.1512 27.8805C35.3736 27.8805 34.1297 29.4094 33.4344 30.4821V28.2506H28.202C28.2701 29.7239 28.2024 43.9125 28.202 43.9938H33.4344V35.2028C33.4344 34.7328 33.4681 34.261 33.6063 33.9254C33.9845 32.985 34.8461 32.0114 36.2919 32.0114C38.1848 32.0114 38.9422 33.4554 38.9423 35.5719V43.9938H44.1747V34.9664C44.1746 30.1312 41.5938 27.8806 38.1512 27.8805ZM22.7245 20.6608C20.9338 20.6608 19.7638 21.8357 19.7635 23.3805C19.7635 24.8913 20.8998 26.1002 22.6561 26.1002H22.6893C24.5136 26.1002 25.6501 24.8921 25.6503 23.3815C25.6161 21.8362 24.5142 20.6608 22.7245 20.6608Z" fill="white"/>
</g>
<defs>
<clipPath id="clip0_107_20">
<rect y="0.0495605" width="64" height="64" rx="32" fill="white"/>
</clipPath>
</defs>
</svg>
