<svg width="64" height="65" viewBox="0 0 64 65" fill="none" xmlns="http://www.w3.org/2000/svg">
<rect y="0.0495605" width="64" height="64" rx="32" fill="#000066"/>
<path d="M41.697 30.0296C41.697 34.6833 38.0062 38.4332 35.1786 41.7298C33.7828 43.3571 33.0849 44.1708 32 44.1708C30.9151 44.1708 30.2172 43.3571 28.8214 41.7298C25.9938 38.4332 22.303 34.6833 22.303 30.0296C22.303 27.3506 23.3247 24.7813 25.1432 22.8869C26.9618 20.9926 29.4282 19.9283 32 19.9283C34.5718 19.9283 37.0383 20.9926 38.8568 22.8869C40.6753 24.7813 41.697 27.3506 41.697 30.0296Z" stroke="white" stroke-width="1.51273"/>
<path d="M34.4243 28.7669C34.4243 30.1616 33.3389 31.2923 32 31.2923C30.6611 31.2923 29.5758 30.1616 29.5758 28.7669C29.5758 27.3723 30.6611 26.2416 32 26.2416C33.3389 26.2416 34.4243 27.3723 34.4243 28.7669Z" stroke="white" stroke-width="1.51273"/>
</svg>
