<svg width="64" height="65" viewBox="0 0 64 65" fill="none" xmlns="http://www.w3.org/2000/svg">
<rect y="0.0495605" width="64" height="64" rx="32" fill="#000066"/>
<path d="M35.9254 34.0708C35.7546 34.0058 35.6692 33.9732 35.5793 33.9655C35.4895 33.9577 35.3998 33.9751 35.2204 34.0098L33.8499 34.2754C33.6318 34.3177 33.5227 34.3388 33.4102 34.3209C33.2977 34.303 33.2084 34.2533 33.0297 34.1539C31.9166 33.5349 31.1667 32.8205 30.6802 31.8128C30.6084 31.664 30.5725 31.5896 30.5588 31.4874C30.5452 31.3851 30.5628 31.2907 30.598 31.1018L30.8679 29.6544C30.9007 29.4786 30.917 29.3907 30.9093 29.3027C30.9016 29.2147 30.8701 29.131 30.8072 28.9636L30.484 28.1041C30.3319 27.6995 30.2558 27.4972 30.0901 27.3825C29.9244 27.2677 29.7082 27.2677 29.276 27.2677H28.1992C27.6067 27.2677 27.1402 27.7573 27.229 28.343C27.4496 29.8048 28.101 32.4559 30.0041 34.359C32.0028 36.3577 34.8819 37.225 36.4661 37.5701C37.0781 37.703 37.6207 37.226 37.6207 36.5994V35.6061C37.6207 35.1758 37.6207 34.9606 37.5068 34.7953C37.3928 34.6299 37.1917 34.5533 36.7896 34.4001L35.9254 34.0708Z" stroke="white" stroke-width="1.51273" stroke-linecap="round" stroke-linejoin="round"/>
</svg>
