<svg width="64" height="65" viewBox="0 0 64 65" fill="none" xmlns="http://www.w3.org/2000/svg">
<g clip-path="url(#clip0_107_21)">
<rect x="0.365234" y="0.0495605" width="64" height="64" rx="26.6667" fill="#00D95F"/>
<path d="M16.0001 46.7698L18.296 38.2406C16.4444 34.918 15.8562 31.0408 16.6392 27.3206C17.4222 23.6003 19.524 20.2864 22.5588 17.9871C25.5937 15.6877 29.358 14.5572 33.1611 14.8028C36.9642 15.0484 40.551 16.6538 43.2632 19.3244C45.9754 21.9949 47.6311 25.5514 47.9266 29.3414C48.2221 33.1313 47.1374 36.9004 44.8717 39.957C42.6059 43.0137 39.3111 45.1528 35.5918 45.9819C31.8725 46.811 27.9781 46.2744 24.6234 44.4707L16.0001 46.7698ZM25.0392 41.279L25.5725 41.5945C28.0024 43.0311 30.8405 43.6256 33.6445 43.2854C36.4485 42.9451 39.0608 41.6892 41.0745 39.7134C43.0882 37.7376 44.3901 35.1528 44.7772 32.3619C45.1644 29.5711 44.6151 26.7308 43.215 24.2838C41.8149 21.8368 39.6426 19.9205 37.0366 18.8336C34.4306 17.7466 31.5373 17.55 28.8076 18.2745C26.0779 18.9989 23.6652 20.6037 21.9453 22.8388C20.2255 25.0738 19.2952 27.8135 19.2994 30.631C19.2971 32.9671 19.9448 35.2581 21.1705 37.2488L21.5049 37.7988L20.2214 42.5593L25.0392 41.279Z" fill="white"/>
<path fill-rule="evenodd" clip-rule="evenodd" d="M37.9829 32.8211C37.6703 32.5695 37.3042 32.3925 36.9126 32.3034C36.521 32.2144 36.1142 32.2157 35.7231 32.3071C35.1356 32.5506 34.756 33.4702 34.3763 33.93C34.2963 34.0403 34.1786 34.1176 34.0455 34.1475C33.9124 34.1773 33.7729 34.1577 33.6532 34.0923C31.5022 33.252 29.6992 31.711 28.5371 29.7195C28.438 29.5953 28.391 29.4375 28.4062 29.2794C28.4214 29.1213 28.4975 28.9753 28.6184 28.872C29.0419 28.4539 29.3527 27.936 29.5223 27.3663C29.56 26.7379 29.4157 26.112 29.1065 25.5631C28.8676 24.7936 28.4128 24.1085 27.7959 23.5886C27.4777 23.4458 27.1249 23.398 26.7801 23.4508C26.4352 23.5036 26.1131 23.6548 25.8525 23.8861C25.4 24.2755 25.0409 24.7611 24.8016 25.3072C24.5622 25.8534 24.4487 26.4461 24.4695 27.0417C24.4709 27.3763 24.5134 27.7093 24.596 28.0335C24.8059 28.8124 25.1287 29.5566 25.5542 30.2425C25.8611 30.7678 26.1961 31.2765 26.5575 31.7662C27.7322 33.3746 29.2088 34.7403 30.9053 35.7874C31.7567 36.3194 32.6665 36.752 33.617 37.0767C34.6044 37.5231 35.6945 37.6944 36.7717 37.5725C37.3854 37.4799 37.9669 37.2382 38.465 36.8687C38.963 36.4993 39.3624 36.0133 39.628 35.4538C39.7841 35.1157 39.8314 34.7378 39.7636 34.3718C39.6009 33.6235 38.5976 33.1817 37.9829 32.8211Z" fill="white"/>
</g>
<defs>
<clipPath id="clip0_107_21">
<rect y="0.0495605" width="64" height="64" rx="32" fill="white"/>
</clipPath>
</defs>
</svg>
