<svg width="496" height="120" viewBox="0 0 496 120" fill="none" xmlns="http://www.w3.org/2000/svg">
<mask id="mask0_106_21619" style="mask-type:luminance" maskUnits="userSpaceOnUse" x="2" y="5" width="112" height="111">
<path d="M113.091 5.45452H2.836V115.805H113.091V5.45452Z" fill="white"/>
</mask>
<g mask="url(#mask0_106_21619)">
<path d="M63.7544 91.3024H43.0915L57.9398 60.3715L80.2903 105.236C83.6551 111.513 92.0768 115.804 100.494 115.804H113.048L111.195 112.101L86.7023 63.1026L57.9398 5.55087L2.83563 115.8H39.267C52.7358 115.8 63.7544 104.776 63.7544 91.3024Z" fill="#000066"/>
</g>
<mask id="mask1_106_21619" style="mask-type:luminance" maskUnits="userSpaceOnUse" x="92" y="7" width="26" height="108">
<path d="M117.459 7.68008H92.8357V114.29H117.459V7.68008Z" fill="white"/>
</mask>
<g mask="url(#mask1_106_21619)">
<path d="M92.9655 7.69585V65.2432L117.459 114.242V32.193C117.459 18.7189 106.435 7.69585 92.9655 7.69585Z" fill="#FF6600"/>
</g>
<path d="M167.474 11.6364H175.11L191.746 58H181.724L178.656 48.5227H160.724L157.656 58H147.496L162.974 14.7045C163.656 12.6591 165.156 11.6364 167.474 11.6364ZM169.587 20.9773L163.246 40.6818H175.996L169.587 20.9773ZM208.987 51.3182C214.033 51.3182 217.101 48.3182 217.101 43.2045V39.8636C214.987 40.75 212.533 41.5 209.874 42.0455C206.26 42.7273 204.419 44.4318 204.419 47.0909C204.624 49.9545 206.124 51.3182 208.987 51.3182ZM211.101 28.8182C207.897 28.8182 206.124 29.6364 205.647 31.3409H196.578C197.669 24.6591 202.374 21.3864 210.692 21.3864C220.647 21.3864 225.692 24.6591 225.897 31.3409V43.6136C225.897 53.5682 219.897 58 210.147 58.6818C201.487 59.3636 195.487 55.3409 195.487 47.3636C195.692 38.7045 201.965 36.3864 211.101 35.5C214.987 35.0227 216.965 33.8636 216.965 31.8864C216.76 29.8409 214.851 28.8182 211.101 28.8182ZM230.263 58V39.3864C230.536 27.7273 236.741 21.9318 248.809 21.9318H250.104V31.3409H247.036C241.991 31.3409 239.468 34 239.468 39.25V58H230.263ZM270.391 21.3864C281.3 21.3864 286.823 27.5909 286.823 40.1364C286.823 52.5455 281.3 58.8182 270.391 58.8182C259.482 58.8182 254.027 52.5455 254.027 40.1364C254.027 27.5909 259.482 21.3864 270.391 21.3864ZM270.391 29.3636C265.618 29.3636 263.232 32.9773 263.232 40.1364C263.3 47.1591 265.686 50.7045 270.323 50.7045C274.959 50.7045 277.277 47.0227 277.346 39.8636C277.346 32.8409 275.027 29.3636 270.391 29.3636ZM307.551 50.7045C312.46 50.7045 315.051 47.2273 315.324 40.2727C315.392 32.9773 312.869 29.3636 307.688 29.3636C302.506 29.3636 299.983 32.9773 299.983 40.2727C300.188 47.2273 302.642 50.7045 307.551 50.7045ZM305.028 58.6818C295.415 58.6818 290.642 52.4091 290.642 40C290.642 28 296.233 22 307.415 21.7955C318.665 21.7273 324.324 27.0455 324.324 37.8864V59.2273C324.324 68.2955 318.597 72.8636 307.074 73.0682C298.892 73.0682 293.71 69.25 291.597 61.6136H301.619C302.233 64.2045 304.347 65.4318 308.097 65.4318C312.869 65.4318 315.324 62.6364 315.324 57.0455C315.324 57.0455 315.324 57.1136 315.324 53.3636C313.006 56.9091 309.528 58.6818 305.028 58.6818ZM330.294 64.4091H332.816C337.794 64.4091 339.566 61.9545 338.134 57.1818L325.862 21.9318H336.157L343.316 46.9545L349.589 25.1364C350.134 23.0227 351.566 21.9318 353.884 21.9318H360.225L345.975 64.1364C343.794 70.0682 341.612 72.1136 334.112 72.1136C331.794 72.1136 330.566 72.0455 330.294 71.8409V64.4091ZM375.114 51.3182C380.16 51.3182 383.228 48.3182 383.228 43.2045V39.8636C381.114 40.75 378.66 41.5 376 42.0455C372.387 42.7273 370.546 44.4318 370.546 47.0909C370.75 49.9545 372.25 51.3182 375.114 51.3182ZM377.228 28.8182C374.023 28.8182 372.25 29.6364 371.773 31.3409H362.705C363.796 24.6591 368.5 21.3864 376.819 21.3864C386.773 21.3864 391.819 24.6591 392.023 31.3409V43.6136C392.023 53.5682 386.023 58 376.273 58.6818C367.614 59.3636 361.614 55.3409 361.614 47.3636C361.819 38.7045 368.091 36.3864 377.228 35.5C381.114 35.0227 383.091 33.8636 383.091 31.8864C382.887 29.8409 380.978 28.8182 377.228 28.8182Z" fill="#000066"/>
<path d="M396.526 16.6136C396.526 13.9545 398.64 11.6364 401.299 11.6364H406.413L425.299 43.4773V11.6364H434.64V58H424.754L405.867 26.1591V58H396.526V16.6136ZM439.603 58V16.6136C439.603 13.3409 441.171 11.6364 444.376 11.6364H449.08V58H439.603ZM485.763 11.6364H494.013L479.49 34.2727L494.013 58H482.967L473.49 41.9091L464.081 58H453.103L467.626 34.2727L453.103 11.6364H464.081L473.49 27.9318L481.603 14.0227C482.422 12.4545 483.785 11.6364 485.763 11.6364Z" fill="#FF6600"/>
<path d="M153.457 110.017V85.1983H156.364L167.497 103.954H165.937L176.928 85.1983H179.835L179.871 110.017H176.467L176.432 90.552H177.247L167.462 107.003H165.831L155.974 90.552H156.861V110.017H153.457ZM195.19 110.229C193.181 110.229 191.408 109.816 189.872 108.988C188.359 108.161 187.177 107.027 186.326 105.585C185.499 104.143 185.085 102.488 185.085 100.621C185.085 98.7538 185.487 97.0992 186.291 95.6574C187.118 94.2156 188.241 93.0929 189.659 92.2892C191.101 91.462 192.72 91.0483 194.516 91.0483C196.336 91.0483 197.943 91.4501 199.338 92.2538C200.732 93.0574 201.82 94.192 202.6 95.6574C203.403 97.0992 203.805 98.7892 203.805 100.727C203.805 100.869 203.793 101.035 203.77 101.224C203.77 101.413 203.758 101.59 203.734 101.756H187.744V99.3092H201.962L200.579 100.16C200.602 98.9547 200.354 97.8792 199.834 96.9338C199.314 95.9883 198.593 95.2556 197.672 94.7356C196.773 94.192 195.722 93.9201 194.516 93.9201C193.334 93.9201 192.282 94.192 191.361 94.7356C190.439 95.2556 189.718 96.0001 189.198 96.9692C188.678 97.9147 188.418 99.002 188.418 100.231V100.798C188.418 102.051 188.702 103.174 189.269 104.167C189.86 105.136 190.675 105.892 191.715 106.436C192.755 106.979 193.949 107.251 195.296 107.251C196.407 107.251 197.412 107.062 198.31 106.684C199.232 106.306 200.035 105.738 200.721 104.982L202.6 107.18C201.749 108.173 200.685 108.929 199.409 109.449C198.156 109.969 196.75 110.229 195.19 110.229ZM216.296 110.229C214.476 110.229 212.845 109.827 211.403 109.024C209.985 108.22 208.862 107.097 208.035 105.656C207.208 104.214 206.794 102.536 206.794 100.621C206.794 98.7065 207.208 97.0401 208.035 95.622C208.862 94.1801 209.985 93.0574 211.403 92.2538C212.845 91.4501 214.476 91.0483 216.296 91.0483C217.88 91.0483 219.31 91.4029 220.586 92.112C221.862 92.8211 222.879 93.8847 223.635 95.3029C224.415 96.7211 224.805 98.4938 224.805 100.621C224.805 102.748 224.427 104.521 223.671 105.939C222.938 107.357 221.933 108.433 220.657 109.166C219.381 109.875 217.927 110.229 216.296 110.229ZM216.58 107.251C217.761 107.251 218.825 106.979 219.771 106.436C220.74 105.892 221.496 105.124 222.04 104.131C222.607 103.115 222.891 101.945 222.891 100.621C222.891 99.2738 222.607 98.1156 222.04 97.1465C221.496 96.1538 220.74 95.3856 219.771 94.842C218.825 94.2983 217.761 94.0265 216.58 94.0265C215.374 94.0265 214.299 94.2983 213.353 94.842C212.408 95.3856 211.651 96.1538 211.084 97.1465C210.517 98.1156 210.233 99.2738 210.233 100.621C210.233 101.945 210.517 103.115 211.084 104.131C211.651 105.124 212.408 105.892 213.353 106.436C214.299 106.979 215.374 107.251 216.58 107.251ZM222.997 110.017V104.947L223.21 100.586L222.855 96.2247V83.7092H226.259V110.017H222.997ZM238.123 110.017V88.2829H229.614V85.1983H250.142V88.2829H241.633V110.017H238.123ZM259.936 110.229C257.927 110.229 256.154 109.816 254.618 108.988C253.105 108.161 251.923 107.027 251.072 105.585C250.245 104.143 249.831 102.488 249.831 100.621C249.831 98.7538 250.233 97.0992 251.037 95.6574C251.864 94.2156 252.987 93.0929 254.405 92.2892C255.847 91.462 257.466 91.0483 259.262 91.0483C261.082 91.0483 262.69 91.4501 264.084 92.2538C265.479 93.0574 266.566 94.192 267.346 95.6574C268.15 97.0992 268.551 98.7892 268.551 100.727C268.551 100.869 268.54 101.035 268.516 101.224C268.516 101.413 268.504 101.59 268.48 101.756H252.49V99.3092H266.708L265.325 100.16C265.349 98.9547 265.1 97.8792 264.58 96.9338C264.06 95.9883 263.34 95.2556 262.418 94.7356C261.52 94.192 260.468 93.9201 259.262 93.9201C258.08 93.9201 257.029 94.192 256.107 94.7356C255.185 95.2556 254.464 96.0001 253.944 96.9692C253.424 97.9147 253.164 99.002 253.164 100.231V100.798C253.164 102.051 253.448 103.174 254.015 104.167C254.606 105.136 255.421 105.892 256.461 106.436C257.501 106.979 258.695 107.251 260.042 107.251C261.153 107.251 262.158 107.062 263.056 106.684C263.978 106.306 264.781 105.738 265.467 104.982L267.346 107.18C266.495 108.173 265.431 108.929 264.155 109.449C262.902 109.969 261.496 110.229 259.936 110.229ZM281.468 110.229C279.553 110.229 277.839 109.816 276.327 108.988C274.838 108.161 273.668 107.027 272.817 105.585C271.966 104.143 271.54 102.488 271.54 100.621C271.54 98.7538 271.966 97.0992 272.817 95.6574C273.668 94.2156 274.838 93.0929 276.327 92.2892C277.839 91.462 279.553 91.0483 281.468 91.0483C283.169 91.0483 284.682 91.3911 286.006 92.0765C287.353 92.7383 288.393 93.7311 289.126 95.0547L286.538 96.7211C285.923 95.7992 285.167 95.1256 284.268 94.7001C283.394 94.2511 282.448 94.0265 281.432 94.0265C280.203 94.0265 279.104 94.2983 278.135 94.842C277.166 95.3856 276.398 96.1538 275.83 97.1465C275.263 98.1156 274.979 99.2738 274.979 100.621C274.979 101.968 275.263 103.138 275.83 104.131C276.398 105.124 277.166 105.892 278.135 106.436C279.104 106.979 280.203 107.251 281.432 107.251C282.448 107.251 283.394 107.038 284.268 106.613C285.167 106.164 285.923 105.478 286.538 104.557L289.126 106.187C288.393 107.487 287.353 108.492 286.006 109.201C284.682 109.887 283.169 110.229 281.468 110.229ZM293.29 110.017V83.7092H296.694V96.2956L296.02 94.9483C296.635 93.7192 297.58 92.762 298.856 92.0765C300.133 91.3911 301.622 91.0483 303.324 91.0483C304.86 91.0483 306.207 91.3438 307.365 91.9347C308.547 92.5256 309.469 93.4238 310.131 94.6292C310.793 95.8347 311.124 97.3592 311.124 99.2029V110.017H307.72V99.5929C307.72 97.7729 307.271 96.402 306.373 95.4801C305.498 94.5583 304.257 94.0974 302.65 94.0974C301.445 94.0974 300.393 94.3338 299.495 94.8065C298.596 95.2792 297.899 95.9765 297.403 96.8983C296.93 97.8201 296.694 98.9665 296.694 100.337V110.017H293.29ZM334.673 110.3C332.782 110.3 330.974 110.017 329.249 109.449C327.523 108.858 326.164 108.102 325.171 107.18L326.483 104.415C327.429 105.242 328.634 105.927 330.1 106.471C331.565 107.015 333.09 107.287 334.673 107.287C336.115 107.287 337.285 107.121 338.183 106.79C339.081 106.459 339.743 106.01 340.169 105.443C340.594 104.852 340.807 104.19 340.807 103.457C340.807 102.607 340.523 101.921 339.956 101.401C339.412 100.881 338.691 100.467 337.793 100.16C336.919 99.8292 335.95 99.5456 334.886 99.3092C333.822 99.0729 332.747 98.8011 331.66 98.4938C330.596 98.1629 329.615 97.7492 328.717 97.2529C327.842 96.7565 327.133 96.0947 326.59 95.2674C326.046 94.4165 325.774 93.3292 325.774 92.0056C325.774 90.7292 326.105 89.5592 326.767 88.4956C327.452 87.4083 328.492 86.5456 329.887 85.9074C331.305 85.2456 333.101 84.9147 335.276 84.9147C336.718 84.9147 338.148 85.1038 339.566 85.482C340.984 85.8601 342.213 86.4038 343.253 87.1129L342.083 89.9492C341.02 89.2401 339.897 88.732 338.715 88.4247C337.533 88.0938 336.387 87.9283 335.276 87.9283C333.881 87.9283 332.735 88.1056 331.837 88.4601C330.939 88.8147 330.277 89.2874 329.851 89.8783C329.45 90.4692 329.249 91.1311 329.249 91.8638C329.249 92.7383 329.521 93.4356 330.064 93.9556C330.631 94.4756 331.352 94.8892 332.227 95.1965C333.125 95.5038 334.106 95.7874 335.17 96.0474C336.233 96.2838 337.297 96.5556 338.361 96.8629C339.448 97.1701 340.429 97.572 341.303 98.0683C342.201 98.5647 342.922 99.2265 343.466 100.054C344.01 100.881 344.281 101.945 344.281 103.245C344.281 104.497 343.939 105.667 343.253 106.755C342.568 107.818 341.504 108.681 340.062 109.343C338.644 109.981 336.848 110.3 334.673 110.3ZM357.013 110.229C355.122 110.229 353.444 109.816 351.978 108.988C350.513 108.161 349.355 107.027 348.504 105.585C347.653 104.119 347.227 102.465 347.227 100.621C347.227 98.7538 347.653 97.0992 348.504 95.6574C349.355 94.2156 350.513 93.0929 351.978 92.2892C353.444 91.462 355.122 91.0483 357.013 91.0483C358.88 91.0483 360.547 91.462 362.012 92.2892C363.501 93.0929 364.659 94.2156 365.487 95.6574C366.337 97.0756 366.763 98.7301 366.763 100.621C366.763 102.488 366.337 104.143 365.487 105.585C364.659 107.027 363.501 108.161 362.012 108.988C360.547 109.816 358.88 110.229 357.013 110.229ZM357.013 107.251C358.218 107.251 359.294 106.979 360.239 106.436C361.208 105.892 361.965 105.124 362.508 104.131C363.052 103.115 363.324 101.945 363.324 100.621C363.324 99.2738 363.052 98.1156 362.508 97.1465C361.965 96.1538 361.208 95.3856 360.239 94.842C359.294 94.2983 358.218 94.0265 357.013 94.0265C355.807 94.0265 354.732 94.2983 353.787 94.842C352.841 95.3856 352.085 96.1538 351.517 97.1465C350.95 98.1156 350.667 99.2738 350.667 100.621C350.667 101.945 350.95 103.115 351.517 104.131C352.085 105.124 352.841 105.892 353.787 106.436C354.732 106.979 355.807 107.251 357.013 107.251ZM371.47 110.017V83.7092H374.874V110.017H371.47ZM389.279 110.229C387.671 110.229 386.253 109.934 385.024 109.343C383.819 108.752 382.873 107.854 382.188 106.648C381.526 105.419 381.195 103.883 381.195 102.039V91.2256H384.599V101.649C384.599 103.493 385.036 104.876 385.911 105.797C386.809 106.719 388.061 107.18 389.669 107.18C390.851 107.18 391.879 106.944 392.753 106.471C393.628 105.975 394.301 105.266 394.774 104.344C395.247 103.398 395.483 102.264 395.483 100.94V91.2256H398.887V110.017H395.661V104.947L396.192 106.294C395.578 107.547 394.656 108.516 393.427 109.201C392.198 109.887 390.815 110.229 389.279 110.229ZM411.819 110.229C409.928 110.229 408.463 109.721 407.423 108.705C406.383 107.688 405.863 106.235 405.863 104.344V87.1129H409.267V104.202C409.267 105.218 409.515 105.998 410.011 106.542C410.531 107.086 411.264 107.357 412.209 107.357C413.273 107.357 414.159 107.062 414.868 106.471L415.932 108.917C415.412 109.367 414.786 109.697 414.053 109.91C413.344 110.123 412.599 110.229 411.819 110.229ZM402.672 94.0265V91.2256H414.656V94.0265H402.672ZM420.047 110.017V91.2256H423.451V110.017H420.047ZM421.749 87.6092C421.087 87.6092 420.531 87.3965 420.082 86.9711C419.657 86.5456 419.444 86.0256 419.444 85.4111C419.444 84.7729 419.657 84.2411 420.082 83.8156C420.531 83.3901 421.087 83.1774 421.749 83.1774C422.411 83.1774 422.954 83.3901 423.38 83.8156C423.829 84.2174 424.053 84.7256 424.053 85.3401C424.053 85.9783 423.841 86.522 423.415 86.9711C422.99 87.3965 422.434 87.6092 421.749 87.6092ZM437.997 110.229C436.107 110.229 434.428 109.816 432.963 108.988C431.497 108.161 430.339 107.027 429.488 105.585C428.637 104.119 428.212 102.465 428.212 100.621C428.212 98.7538 428.637 97.0992 429.488 95.6574C430.339 94.2156 431.497 93.0929 432.963 92.2892C434.428 91.462 436.107 91.0483 437.997 91.0483C439.865 91.0483 441.531 91.462 442.997 92.2892C444.486 93.0929 445.644 94.2156 446.471 95.6574C447.322 97.0756 447.747 98.7301 447.747 100.621C447.747 102.488 447.322 104.143 446.471 105.585C445.644 107.027 444.486 108.161 442.997 108.988C441.531 109.816 439.865 110.229 437.997 110.229ZM437.997 107.251C439.203 107.251 440.278 106.979 441.224 106.436C442.193 105.892 442.949 105.124 443.493 104.131C444.037 103.115 444.308 101.945 444.308 100.621C444.308 99.2738 444.037 98.1156 443.493 97.1465C442.949 96.1538 442.193 95.3856 441.224 94.842C440.278 94.2983 439.203 94.0265 437.997 94.0265C436.792 94.0265 435.717 94.2983 434.771 94.842C433.826 95.3856 433.069 96.1538 432.502 97.1465C431.935 98.1156 431.651 99.2738 431.651 100.621C431.651 101.945 431.935 103.115 432.502 104.131C433.069 105.124 433.826 105.892 434.771 106.436C435.717 106.979 436.792 107.251 437.997 107.251ZM452.455 110.017V91.2256H455.716V96.2956L455.185 94.9483C455.799 93.7192 456.745 92.762 458.021 92.0765C459.297 91.3911 460.786 91.0483 462.488 91.0483C464.025 91.0483 465.372 91.3438 466.53 91.9347C467.712 92.5256 468.634 93.4238 469.296 94.6292C469.957 95.8347 470.288 97.3592 470.288 99.2029V110.017H466.885V99.5929C466.885 97.7729 466.436 96.402 465.537 95.4801C464.663 94.5583 463.422 94.0974 461.815 94.0974C460.609 94.0974 459.557 94.3338 458.659 94.8065C457.761 95.2792 457.064 95.9765 456.567 96.8983C456.095 97.8201 455.858 98.9665 455.858 100.337V110.017H452.455ZM481.976 110.229C480.416 110.229 478.927 110.017 477.509 109.591C476.115 109.166 475.015 108.646 474.212 108.031L475.63 105.337C476.434 105.88 477.426 106.341 478.608 106.719C479.79 107.097 480.995 107.287 482.225 107.287C483.808 107.287 484.943 107.062 485.628 106.613C486.337 106.164 486.692 105.537 486.692 104.734C486.692 104.143 486.479 103.682 486.054 103.351C485.628 103.02 485.061 102.772 484.352 102.607C483.666 102.441 482.898 102.299 482.047 102.181C481.196 102.039 480.345 101.874 479.495 101.685C478.644 101.472 477.864 101.188 477.155 100.834C476.445 100.456 475.878 99.9474 475.453 99.3092C475.027 98.6474 474.815 97.7729 474.815 96.6856C474.815 95.5511 475.134 94.5583 475.772 93.7074C476.41 92.8565 477.308 92.2065 478.466 91.7574C479.648 91.2847 481.043 91.0483 482.65 91.0483C483.879 91.0483 485.12 91.202 486.373 91.5092C487.649 91.7929 488.689 92.2065 489.493 92.7501L488.039 95.4447C487.188 94.8774 486.302 94.4874 485.38 94.2747C484.458 94.062 483.536 93.9556 482.615 93.9556C481.125 93.9556 480.015 94.2038 479.282 94.7001C478.549 95.1729 478.183 95.7874 478.183 96.5438C478.183 97.182 478.395 97.6783 478.821 98.0329C479.27 98.3638 479.837 98.6238 480.523 98.8129C481.232 99.002 482.012 99.1674 482.863 99.3092C483.714 99.4274 484.565 99.5929 485.415 99.8056C486.266 99.9947 487.035 100.267 487.72 100.621C488.429 100.976 488.996 101.472 489.422 102.11C489.871 102.748 490.095 103.599 490.095 104.663C490.095 105.797 489.765 106.778 489.103 107.606C488.441 108.433 487.507 109.083 486.302 109.556C485.096 110.005 483.655 110.229 481.976 110.229Z" fill="#6B7280"/>
</svg>
